<svg preserveAspectRatio="xMidYMid meet" data-bbox="77 63.5 46 73" viewBox="77 63.5 46 73" height="200" width="200" xmlns="http://www.w3.org/2000/svg" data-type="color" role="presentation" aria-hidden="true"><defs><style>#comp-kx44w9kw_r_comp-kxg6touy svg [data-color="1"] {fill: #EB2528;}</style></defs>
    <g>
        <path d="M100 63.5c-12.681 0-23 10.338-23 23.043 0 12.048 20.406 47.506 21.274 49.011a1.89 1.89 0 0 0 1.638.946h.002a1.89 1.89 0 0 0 1.635-.941C102.424 134.056 123 98.595 123 86.543c0-12.705-10.319-23.043-23-23.043zm-.079 67.28c-6.553-11.679-19.133-35.844-19.133-44.237 0-10.612 8.619-19.248 19.212-19.248s19.212 8.635 19.212 19.248c0 8.388-12.689 32.56-19.291 44.237z" fill="#F4C01C" data-color="1"></path>
        <path d="M100 72.091c-7.579 0-13.744 6.177-13.744 13.767 0 7.593 6.166 13.77 13.744 13.77 7.576 0 13.742-6.177 13.742-13.77 0-7.59-6.166-13.767-13.742-13.767zm0 23.742c-5.49 0-9.956-4.475-9.956-9.975 0-5.498 4.466-9.972 9.956-9.972 5.487 0 9.954 4.475 9.954 9.972 0 5.5-4.467 9.975-9.954 9.975z" fill="#F4C01C" data-color="1"></path>
    </g>
</svg>